<svg xmlns="http://www.w3.org/2000/svg" width="128" height="128" version="1.1"><metadata/><g transform="translate(-311,-468.36218)"><rect width="64" height="64" x="-375" y="-596.4" fill="#f7f5e5" enable-background="new" transform="scale(-1,-1)"/><rect width="64" height="64" x="375" y="468.4" fill="#f7f5e5" enable-background="new"/><rect width="64" height="64" x="532.4" y="-439" fill="#f7f5e5" enable-background="new" transform="matrix(0,1,-1,0,0,0)"/><rect width="64" height="64" x="-532.4" y="311" fill="#f7f5e5" enable-background="new" transform="matrix(0,-1,1,0,0,0)"/><rect width="64" height="4" x="-375" y="-594.4" fill="#efe9c9" enable-background="new" transform="scale(-1,-1)"/><rect width="64" height="4" x="-375" y="-586.4" fill="#efe9c9" enable-background="new" transform="scale(-1,-1)"/><rect width="64" height="4" x="-375" y="-578.4" fill="#efe9c9" enable-background="new" transform="scale(-1,-1)"/><rect width="64" height="4" x="-375" y="-570.4" fill="#efe9c9" enable-background="new" transform="scale(-1,-1)"/><rect width="64" height="4" x="-375" y="-562.4" fill="#efe9c9" enable-background="new" transform="scale(-1,-1)"/><rect width="64" height="4" x="-375" y="-554.4" fill="#efe9c9" enable-background="new" transform="scale(-1,-1)"/><rect width="64" height="4" x="-375" y="-546.4" fill="#efe9c9" enable-background="new" transform="scale(-1,-1)"/><rect width="64" height="4" x="-375" y="-538.4" fill="#efe9c9" enable-background="new" transform="scale(-1,-1)"/><rect width="64" height="4" x="375" y="470.4" fill="#efe9c9" enable-background="new"/><rect width="64" height="4" x="375" y="478.4" fill="#efe9c9" enable-background="new"/><rect width="64" height="4" x="375" y="486.4" fill="#efe9c9" enable-background="new"/><rect width="64" height="4" x="375" y="494.4" fill="#efe9c9" enable-background="new"/><rect width="64" height="4" x="375" y="502.4" fill="#efe9c9" enable-background="new"/><rect width="64" height="4" x="375" y="510.4" fill="#efe9c9" enable-background="new"/><rect width="64" height="4" x="375" y="518.4" fill="#efe9c9" enable-background="new"/><rect width="64" height="4" x="375" y="526.4" fill="#efe9c9" enable-background="new"/><rect width="64" height="4" x="532.4" y="-437" fill="#efe9c9" enable-background="new" transform="matrix(0,1,-1,0,0,0)"/><rect width="64" height="4" x="532.4" y="-429" fill="#efe9c9" enable-background="new" transform="matrix(0,1,-1,0,0,0)"/><rect width="64" height="4" x="532.4" y="-421" fill="#efe9c9" enable-background="new" transform="matrix(0,1,-1,0,0,0)"/><rect width="64" height="4" x="532.4" y="-413" fill="#efe9c9" enable-background="new" transform="matrix(0,1,-1,0,0,0)"/><rect width="64" height="4" x="532.4" y="-405" fill="#efe9c9" enable-background="new" transform="matrix(0,1,-1,0,0,0)"/><rect width="64" height="4" x="532.4" y="-397" fill="#efe9c9" enable-background="new" transform="matrix(0,1,-1,0,0,0)"/><rect width="64" height="4" x="532.4" y="-389" fill="#efe9c9" enable-background="new" transform="matrix(0,1,-1,0,0,0)"/><rect width="64" height="4" x="532.4" y="-381" fill="#efe9c9" enable-background="new" transform="matrix(0,1,-1,0,0,0)"/><rect width="64" height="4" x="-532.4" y="313" fill="#efe9c9" enable-background="new" transform="matrix(0,-1,1,0,0,0)"/><rect width="64" height="4" x="-532.4" y="321" fill="#efe9c9" enable-background="new" transform="matrix(0,-1,1,0,0,0)"/><rect width="64" height="4" x="-532.4" y="329" fill="#efe9c9" enable-background="new" transform="matrix(0,-1,1,0,0,0)"/><rect width="64" height="4" x="-532.4" y="337" fill="#efe9c9" enable-background="new" transform="matrix(0,-1,1,0,0,0)"/><rect width="64" height="4" x="-532.4" y="345" fill="#efe9c9" enable-background="new" transform="matrix(0,-1,1,0,0,0)"/><rect width="64" height="4" x="-532.4" y="353" fill="#efe9c9" enable-background="new" transform="matrix(0,-1,1,0,0,0)"/><rect width="64" height="4" x="-532.4" y="361" fill="#efe9c9" enable-background="new" transform="matrix(0,-1,1,0,0,0)"/><rect width="64" height="4" x="-532.4" y="369" fill="#efe9c9" enable-background="new" transform="matrix(0,-1,1,0,0,0)"/></g></svg>