<svg xmlns="http://www.w3.org/2000/svg" xmlns:xlink="http://www.w3.org/1999/xlink" width="128" height="128" version="1.1"><metadata/><g transform="translate(-317.3858,-473.08804)"><use width="800" height="1250" x="0" y="0" enable-background="new" transform="matrix(1.1203024,0,0,1.1203024,77.31354,897.76703)" xlink:href="#g4923"/><use width="800" height="1250" x="0" y="0" enable-background="new" transform="matrix(0.98281394,0,0,0.98281394,79.45522,864.05422)" xlink:href="#g4923"/><use width="800" height="1250" x="0" y="0" enable-background="new" transform="matrix(1.2749769,0,0,1.2749769,12.96664,918.53891)" xlink:href="#g4923"/><rect width="128" height="128" x="317.4" y="473.1" fill="#e9ffe5" fill-opacity=".733" enable-background="new"/><path fill="#66c443" fill-opacity=".5" d="m360.4,533.3c-3.02-13.87-21.86-8.237-20.38,4.773-4.086,12.02,8.246,26.34,20.27,18.43,6.601-3.152,19.54-18.84,5.887-20.6-2.065-0.451-4.386-0.8052-5.785-2.602z" enable-background="new"/><path fill="#66c443" fill-opacity=".5" d="m338.3,502.7c10.75-0.5374,14.51-5.374,11.29-13.97-3.224-8.598-4.299-12.36-9.673-10.21s-11.29,9.673-9.136,15.58c2.15,5.911,2.687,6.986,7.524,8.598z" enable-background="new"/><path fill="#66c443" fill-opacity=".5" d="m394.2,516.7c8.061-0.5374,12.9-8.598,12.9-12.9,0-4.299-10.21-15.05-12.36-18.27-2.15-3.224-5.374,3.224-6.449,10.75-1.075,7.524-6.986,22.57,5.911,20.42z" enable-background="new"/><path fill="#66c443" fill-opacity=".5" d="m421.8,532.3c-5.911,5.911,2.687,15.05,2.687,15.05s12.36,0.5374,11.82-9.673c-0.5374-10.21,0-15.58-7.524-15.58s-4.299,5.374-6.986,10.21z" enable-background="new"/><path fill="#66c443" fill-opacity=".5" d="m333.5,583c1.29,7.094,9.673,13.54,12.9,5.159,3.224-8.383-8.383-16.77-12.9-5.159z" enable-background="new"/><path fill="#7dc263" fill-opacity=".5" d="m378.6,568.8c0.5374,11.82,9.136,17.2,15.05,14.51,5.911-2.687,11.82-8.598,10.21-16.66-1.612-8.061-10.21-15.05-13.97-17.2-3.762-2.15-11.29,13.44-11.29,19.35z" enable-background="new"/><path fill="#66c443" fill-opacity=".5" d="m420,581.2c3.762,5.911,1.612,5.911,4.837,8.061,3.224,2.15,6.449,5.374,6.449-2.687s-0.5374-12.9-6.986-12.9-3.762,4.299-4.299,7.524z" enable-background="new"/></g></svg>