<svg xmlns="http://www.w3.org/2000/svg" width="4.16" height="7.67" version="1.1" viewBox="0 0 122.747 226.314"><metadata id="metadata14"/><g id="g6771" transform="matrix(0.3,0,0,0.3,29.506437,29.61796)"><path id="path6773" d="m 212.1,105 c 0,58 -47.5,105 -106,105 C 47.5,210 0.1,163 0.1,105 0,47 47.5,0 106,0 164.6,0 212.1,47 212.1,105 z"/><path id="path6775" d="m 212.1,452.3 c 0,58 -47.5,105 -106,105 -58.6,0 -106,-47 -106,-105 0,-58 47.5,-105 106,-105 58.5,0 106,47 106,105 z"/><path id="path6777" d="M 211.3,458.9 H 0 V 106.7 h 211.3 v 352.2 z"/><path id="path6779" fill="red" d="m 190,103 c 0,46.4 -37.6,84 -84,84 -46.4,0 -84,-37.6 -84,-84 0,-46.4 37.6,-84 84,-84 46.4,0 84,37.6 84,84 z"/><path id="path6781" fill="#32cd32" d="m 190,455 c 0,46.4 -37.6,84 -84,84 -46.4,0 -84,-37.6 -84,-84 0,-46.4 37.6,-84 84,-84 46.4,0.1 84,37.7 84,84 z"/><path id="path6783" fill="#ff0" d="m 190,279 c 0,46.4 -37.6,84 -84,84 -46.4,0 -84,-37.6 -84,-84 0,-46.4 37.6,-84 84,-84 46.4,0 84,37.6 84,84 z"/></g></svg>