<svg xmlns="http://www.w3.org/2000/svg" width="580" height="580" version="1.0"><metadata id="metadata10"/><defs id="defs4"><linearGradient id="linearGradient3828"><stop id="stop3830" stop-color="#ccc" stop-opacity="0"/><stop id="stop3840" offset=".125" stop-color="#ccc" stop-opacity=".655"/><stop id="stop3836" offset=".5" stop-color="#ccc"/><stop id="stop3832" offset="1" stop-color="#ccc" stop-opacity="0"/></linearGradient></defs><g id="g1327"><path id="path1329" fill="#8E7409" stroke="#eee" stroke-width="3.408" d="M 66.275,1.768 C 24.94,1.768 1.704,23.139 1.704,66.804 L 1.704,516.927 C 1.704,557.771 22.598,579.156 63.896,579.156 L 515.92,579.156 C 557.227,579.156 578.149,558.84 578.149,516.927 L 578.149,66.804 C 578.149,24.203 557.227,1.768 514.627,1.768 C 514.624,1.768 66.133,1.625 66.275,1.768 z"/></g><path id="path4329" fill="#fff" stroke-width="24.19" d="m 91.654435,382.94435 c -6.18495,-0.009 -12.106357,4.46871 -13.784625,10.42162 l -6.541229,23.06061 61.716689,0 4.10212,-33.48223 z m 69.366605,0 -4.10214,33.48223 73.43177,0 2.21737,-33.48223 z m 95.23586,0 -2.21737,33.48223 69.92094,0 -2.21737,-33.48223 z m 89.17506,0 2.21737,33.48223 73.43177,0 -4.10213,-33.48223 z m 95.42065,0 4.10212,33.48223 61.71669,0 -6.54123,-23.06061 c -1.67827,-5.95291 -7.59967,-10.42969 -13.78463,-10.42162 z m -374.217454,52.40375 -10.015103,35.47786 70.031807,0 4.36082,-35.47786 z m 88.251164,0 -4.36082,35.47786 76.38826,0 2.32823,-35.47786 z m 98.04453,0 -2.32823,35.47786 76.79476,0 -2.32823,-35.47786 z m 95.82716,0 2.32823,35.47786 76.38826,0 -4.36082,-35.47786 z m 98.22931,0 4.36082,35.47786 70.03181,0 -10.01511,-35.47786 z M 50.559253,492.11266 43.57455,516.83629 c -1.20612,4.23593 -0.324598,9.01239 2.328234,12.52812 2.652834,3.51572 7.015145,5.68873 11.419435,5.69124 l 61.457991,0 5.28472,-42.94299 z m 97.342367,0 -5.24777,42.94299 80.00995,0 2.84562,-42.94299 z m 101.29666,0 -2.84562,42.94299 85.29468,0 -2.84562,-42.94299 z m 103.2923,0 2.84562,42.94299 80.00995,0 -5.24777,-42.94299 z m 101.44449,0 5.28472,42.94299 61.458,0 c 4.40428,-0.002 8.76659,-2.17552 11.41942,-5.69124 2.65284,-3.51573 3.53436,-8.29219 2.32824,-12.52812 l -6.9847,-24.72363 z" color="#000"/><g id="g4508" transform="translate(0,8)"><path id="path4331" fill="#fff" stroke="#fff" stroke-linecap="round" stroke-linejoin="round" stroke-width="11.268" d="m 482,122 c 0,41.97364 -34.02636,76 -76,76 -41.97364,0 -76,-34.02636 -76,-76 0,-41.973641 34.02636,-76 76,-76 41.97364,0 76,34.026359 76,76 z" transform="matrix(0.8875005,0,0,0.8875005,31.58446,61.794406)"/><path id="path4337" fill="none" stroke="#fff" stroke-linecap="round" stroke-linejoin="round" stroke-width="20" d="m 489.47586,171.05406 47.85463,-0.0911"/><path id="path4333" fill="none" stroke="#fff" stroke-linecap="round" stroke-linejoin="round" stroke-width="20" d="m 391.90967,264.14317 0,47.85471"/><path id="path4335" fill="none" stroke="#fff" stroke-linecap="round" stroke-linejoin="round" stroke-width="20" d="m 439.43006,257.09212 22.16187,42.41374"/><path id="path4339" fill="none" stroke="#fff" stroke-linecap="round" stroke-linejoin="round" stroke-width="20" d="m 476.69361,221.67792 40.7178,25.14231"/><path id="path4361" fill="none" stroke="#fff" stroke-linecap="round" stroke-linejoin="round" stroke-width="20" d="M 439.43006,85.671125 461.59193,43.257386"/><path id="path4363" fill="none" stroke="#fff" stroke-linecap="round" stroke-linejoin="round" stroke-width="20" d="m 476.69361,121.08532 40.7178,-25.142305"/><path id="path4367" fill="none" stroke="#fff" stroke-linecap="round" stroke-linejoin="round" stroke-width="20" d="m 293.18172,169.97835 -47.85463,0.0911"/><path id="path4371" fill="none" stroke="#fff" stroke-linecap="round" stroke-linejoin="round" stroke-width="20" d="m 390.74792,72.889239 0,-47.854712"/><path id="path4373" fill="none" stroke="#fff" stroke-linecap="round" stroke-linejoin="round" stroke-width="20" d="M 343.22752,83.94029 321.06565,41.526551"/><path id="path4375" fill="none" stroke="#fff" stroke-linecap="round" stroke-linejoin="round" stroke-width="20" d="M 305.96397,119.35449 265.24617,94.212181"/><path id="path4383" fill="none" stroke="#fff" stroke-linecap="round" stroke-linejoin="round" stroke-width="20" d="m 390.74792,268.14317 0,47.85471"/><path id="path4385" fill="none" stroke="#fff" stroke-linecap="round" stroke-linejoin="round" stroke-width="20" d="m 343.22752,257.09212 -22.16187,42.41374"/><path id="path4387" fill="none" stroke="#fff" stroke-linecap="round" stroke-linejoin="round" stroke-width="20" d="m 305.96397,221.67792 -40.7178,25.14231"/></g></svg>