<svg xmlns="http://www.w3.org/2000/svg" width="580" height="580" version="1.0" viewBox="0 0 10668.302 10668.302"><metadata id="metadata9"/><g id="g5357" fill="#0092da" stroke="#0092da" transform="matrix(14.786663,0,0,14.786663,-1589.7804,596.1145)"><path id="path4817" stroke-linecap="round" stroke-linejoin="round" stroke-width="74.2" d="M 256.05495,237.14675 241.67023,317.3127"/><path id="path5329" stroke-linecap="round" stroke-linejoin="round" stroke-width="32.6" d="M 330.52502,307.73122 296.11201,278.04332 273.66832,225.7194"/><path id="path5331" stroke-linecap="round" stroke-linejoin="round" stroke-width="41.3" d="M 313.55883,487.77682 302.16655,393.38367"/><path id="path5333" stroke-linecap="round" stroke-linejoin="round" stroke-width="45.1" d="m 245.20517,315.8077 54.24893,74.86352"/><path id="path5335" stroke-linecap="round" stroke-linejoin="round" stroke-width="45.1" d="m 226.76053,316.89268 1.62747,87.34077"/><path id="path5337" stroke-linecap="round" stroke-linejoin="round" stroke-width="45.31" d="m 192.04122,489.40429 37.43176,-80.83092"/><path id="path5339" stroke-linecap="round" stroke-linejoin="round" stroke-width="45.1" d="m 278.89197,151.40646 c -9.43171,0.42792 -13.14501,14.03074 -5.34375,19.21875 7.10539,5.86065 18.86748,-1.24234 16.9375,-10.3125 -0.85188,-5.43638 -6.10237,-9.52 -11.59375,-8.90625 z"/><path id="path5417" stroke-linecap="round" stroke-linejoin="round" stroke-width="32.6" d="m 177.5811,312.56103 16.29998,-55.44688 51.61336,-38.63946"/></g><g id="g3023" transform="matrix(0.6,0,0,0.6,8472.3899,-1394.9411)"><path id="path4083" fill="#0092da" d="m -7048.2837,7597.1178 4195.7516,2439.2582 4223.951,-2432.0433 712.62,1228.0844 -3522.3731,2021.8209 3518.3801,2014.965 -712.621,1228.084 -4201.5734,-2445.44 -4214.1351,2455.512 -700.9912,-1233.778 3466.7941,-2014.153 -3466.7943,-2028.5321 z"/><rect id="rect4021" width="5834.99" height="695.85" x="257.42" y="10483.26" fill="#fff" rx="0" transform="matrix(0.86832845,0.49598962,-0.5160549,0.85655551,0,0)"/><rect id="rect4021-9" width="5834.99" height="695.85" x="5111.32" y="7672.6" fill="#fff" rx="0" transform="matrix(-0.86832845,0.49598961,0.51605482,0.85655556,0,0)"/></g></svg>