<svg xmlns="http://www.w3.org/2000/svg" xmlns:svg="http://www.w3.org/2000/svg" id="symbol-railway-crossing-small" width="14.108" height="7.594" version="1.0" viewBox="0 0 259.5 139.688"><g id="g3" transform="scale(0.5,0.5)"><path id="path5" fill="red" d="M 1.5,4.5 67.5,6 257.5,97.4 456,0 519,4.5 504,52.5 319.5,139.5 495,220.5 510,271.5 451.5,277.5 258,178.5 C 258,178.5 69,274.5 64.5,277.5 60,280.5 0,279 0,279 L 6,228 178.5,142.5 12,63 1.5,4.5 z"/><path id="path7" fill="#fff" d="M 49.5,21 33,49.5 219,141 36,237 52.5,262.5 258,156 454.5,261 475.5,228 286.5,136.5 475.5,49.5 454.5,19.5 257.8,116.2 49.5,21 z"/></g></svg>