<svg xmlns="http://www.w3.org/2000/svg" width="580" height="580" version="1.0"><metadata id="metadata10"/><defs id="defs4"><marker id="ArrowStart" markerHeight="3" markerUnits="strokeWidth" markerWidth="4" orient="auto" refX="10" refY="5" viewBox="0 0 10 10"><path id="path2295" d="M 10 0 L 0 5 L 10 10 z"/></marker><marker id="ArrowEnd" markerHeight="3" markerUnits="strokeWidth" markerWidth="4" orient="auto" refY="5" viewBox="0 0 10 10"><path id="path2292" d="M 0 0 L 10 5 L 0 10 z"/></marker></defs><g id="g1327"><path id="path1329" fill="#0092DA" stroke="#eee" stroke-width="3.408" d="M 66.275,1.768 C 24.94,1.768 1.704,23.139 1.704,66.804 L 1.704,516.927 C 1.704,557.771 22.598,579.156 63.896,579.156 L 515.92,579.156 C 557.227,579.156 578.149,558.84 578.149,516.927 L 578.149,66.804 C 578.149,24.203 557.227,1.768 514.627,1.768 C 514.624,1.768 66.133,1.625 66.275,1.768 z"/></g><path id="path2997" fill="#fff" d="m 53,471 480,0 0,-30 c 0,0 -80,0 -100,-20 -40,-80 -240,-80 -280,0 -20,20 -100,20 -100,20 z"/></svg>